<?xml version="1.0" standalone="no"?>
<!DOCTYPE svg PUBLIC "-//W3C//DTD SVG 20010904//EN"
 "http://www.w3.org/TR/2001/REC-SVG-20010904/DTD/svg10.dtd">
<svg version="1.0" xmlns="http://www.w3.org/2000/svg"
 width="1613.000000pt" height="1613.000000pt" viewBox="0 0 1613.000000 1613.000000"
 preserveAspectRatio="xMidYMid meet">
<metadata>
Created by potrace 1.14, written by Peter Selinger 2001-2017
</metadata>
<g transform="translate(0.000000,1613.000000) scale(0.100000,-0.100000)"
fill="#000000" stroke="none">
<path d="M7735 16120 c-1426 -64 -2774 -484 -3970 -1238 -343 -216 -647 -443
-988 -734 -183 -157 -638 -612 -795 -795 -625 -730 -1068 -1460 -1412 -2325
-592 -1488 -723 -3136 -375 -4704 409 -1836 1424 -3444 2917 -4616 1147 -901
2578 -1487 4038 -1653 423 -48 1045 -64 1425 -36 1010 73 1926 301 2813 702
1236 559 2308 1421 3131 2519 1687 2250 2075 5219 1023 7835 -326 811 -781
1560 -1362 2241 -156 183 -518 554 -702 722 -1342 1213 -3023 1932 -4829 2066
-250 19 -684 26 -914 16z m-1995 -5360 c538 -38 944 -183 1234 -439 325 -287
515 -748 566 -1367 14 -179 15 -2065 0 -2245 -45 -562 -208 -997 -479 -1282
-212 -222 -471 -363 -830 -451 -77 -19 -220 -45 -318 -58 -177 -23 -186 -23
-1283 -23 l-1105 0 0 330 0 330 253 3 252 2 -2 2278 -3 2277 -252 3 -253 2 0
325 0 325 1038 0 c605 0 1097 -4 1182 -10z m4043 -12 c3 -13 35 -234 72 -493
36 -258 79 -560 95 -670 16 -110 50 -348 75 -530 26 -181 75 -532 110 -780 35
-247 112 -787 170 -1200 58 -412 135 -952 170 -1200 35 -247 69 -488 75 -535
21 -161 15 -150 71 -150 31 0 51 5 53 13 2 6 38 257 80 557 42 300 121 862
176 1250 192 1356 262 1849 331 2340 39 272 99 699 135 948 35 249 64 457 64
462 0 6 245 10 670 10 l670 0 0 -2940 0 -2940 -325 0 -325 0 0 2790 0 2790
-49 0 -49 0 -10 -62 c-6 -35 -16 -101 -22 -148 -6 -47 -40 -287 -75 -535 -35
-247 -95 -673 -134 -945 -38 -272 -120 -848 -181 -1280 -61 -432 -140 -990
-176 -1240 -35 -250 -82 -585 -105 -745 -22 -159 -51 -363 -65 -452 -13 -89
-24 -164 -24 -167 0 -3 -287 -6 -638 -6 l-638 0 -67 473 c-37 259 -96 679
-132 932 -79 562 -205 1446 -290 2050 -35 248 -114 803 -175 1235 -61 432
-114 808 -118 835 l-7 50 -53 3 -52 3 0 -2790 0 -2791 -325 0 -325 0 0 2940 0
2940 669 0 669 0 5 -22z"/>
<path d="M4738 10114 c-5 -4 -8 -1033 -8 -2286 l0 -2280 483 5 c517 4 563 8
779 62 429 108 682 371 788 819 64 272 70 387 70 1396 0 848 -6 1039 -36 1230
-102 648 -407 940 -1079 1036 -120 17 -983 33 -997 18z"/>
</g>
</svg>
