<?xml version="1.0" encoding="UTF-8" standalone="no"?>
<!-- Created with Inkscape (http://www.inkscape.org/) -->

<svg
   width="1080"
   height="1080"
   viewBox="0 0 1080 1080"
   version="1.1"
   id="svg1"
   xml:space="preserve"
   inkscape:version="1.4.3 (0d15f75042, 2025-12-25)"
   sodipodi:docname="dm-icon.svg"
   inkscape:export-filename="dm-icon-color.svg"
   inkscape:export-xdpi="96"
   inkscape:export-ydpi="96"
   xmlns:inkscape="http://www.inkscape.org/namespaces/inkscape"
   xmlns:sodipodi="http://sodipodi.sourceforge.net/DTD/sodipodi-0.dtd"
   xmlns="http://www.w3.org/2000/svg"
   xmlns:svg="http://www.w3.org/2000/svg"><sodipodi:namedview
     id="namedview1"
     pagecolor="#505050"
     bordercolor="#ff1bde"
     borderopacity="1"
     inkscape:showpageshadow="0"
     inkscape:pageopacity="0"
     inkscape:pagecheckerboard="1"
     inkscape:deskcolor="#505050"
     inkscape:document-units="px"
     inkscape:zoom="0.35355339"
     inkscape:cx="401.63665"
     inkscape:cy="705.69257"
     inkscape:window-width="1646"
     inkscape:window-height="965"
     inkscape:window-x="0"
     inkscape:window-y="0"
     inkscape:window-maximized="1"
     inkscape:current-layer="layer1"><inkscape:page
       x="0"
       y="0"
       width="1080"
       height="1080"
       id="page2"
       margin="0"
       bleed="0" /></sodipodi:namedview><defs
     id="defs1" /><rect
     style="font-variation-settings:'wght' 900;display:none;opacity:0.323756;fill:#a610d1;fill-opacity:1;stroke-width:1.88976"
     id="rect15"
     width="1080"
     height="1080"
     x="540"
     y="0"
     sodipodi:insensitive="true" /><g
     inkscape:label="Layer 1"
     inkscape:groupmode="layer"
     id="layer1"><circle
       style="font-variation-settings:'wght' 900;display:none;opacity:1;fill:#000000;fill-opacity:1;stroke-width:1.88976"
       id="path22"
       cx="540"
       cy="540"
       r="540" /><rect
       style="font-variation-settings:'wght' 900;display:none;opacity:1;fill:#1b6098;fill-opacity:1;stroke-width:1.27871"
       id="rect22"
       width="730.78223"
       height="730.78223"
       x="-2209.6685"
       y="-687.64398"
       transform="matrix(1.4778685,0,0,1.4778685,3265.5993,1016.2473)"
       inkscape:label="?" /><rect
       style="font-variation-settings:'wght' 900;display:none;fill:#ffffff;fill-opacity:1;stroke-width:1.88977"
       id="rect22-8"
       width="1080"
       height="1080"
       x="-0.00010809009"
       y="-8.0114231e-05"
       inkscape:label="white" /><rect
       style="font-variation-settings:'wght' 900;display:none;fill:#373737;fill-opacity:1;stroke-width:1.88977"
       id="rect22-5"
       width="1080"
       height="1080"
       x="-9.5406496e-05"
       y="-1.6600066e-05"
       inkscape:label="black" /><g
       id="g22"
       inkscape:label="icon"
       transform="matrix(1.4930083,0,0,1.4930083,3287.9894,1021.1242)"
       style="stroke-width:1.00009;stroke-dasharray:none"><path
         id="path2-1"
         style="display:inline;fill:#d9d9d9;fill-opacity:1;stroke-width:1.00009;stroke-dasharray:none"
         d="m -1608.0273,-608.90234 c -5.8673,-0.23563 -11.9371,-0.0668 -18.2129,0.51757 -56.926,5.30075 -100.7683,32.2939 -128.2735,83.35743 -12.1526,22.56186 -14.3118,47.47139 -15.1914,73.08007 -1.0201,18.83716 -1.474,37.1728 -3.0683,55.40821 -4.3225,49.44573 -29.9119,83.07927 -76.3204,100.84179 -20.2905,7.76593 -40.6829,15.29057 -60.7812,23.5293 -64.0637,26.26029 -70.0935,86.79282 -58.3281,130.14063 13.6454,50.27367 49.9921,77.668485 96.2109,94.513668 34.9774,12.748006 174.8588,12.476641 249.0996,12.195313 15.6637,-0.361749 30.7082,0.02623 46.9219,-3.185547 49.463,-9.798003 78.7563,-41.335186 90.5977,-89.808594 3.3007,-13.51166 4.6698,-27.14976 5.1816,-40.83398 l 0.291,0.24414 c 0.079,-3.55854 0.1533,-7.22613 0.2227,-10.99024 1.234,-66.95619 0.948,-164.34129 -0.3243,-217.57031 -0.013,-0.53996 -0.026,-1.07467 -0.039,-1.60547 l -0.045,0.0879 c -0.3294,-26.42183 -2.9019,-52.80262 -8.2305,-79.11328 -4.9739,-24.55932 -12.8132,-48.16831 -25.5234,-69.96094 -21.9969,-37.71542 -53.1168,-59.19828 -94.1875,-60.84765 z"
         sodipodi:nodetypes="sssccscsscsscccsccsss"
         inkscape:label="m" /><path
         id="path2-3"
         style="display:inline;fill:#001dfe;fill-opacity:1;stroke:none;stroke-width:13.1063;stroke-linecap:round;stroke-linejoin:round;stroke-dasharray:none;stroke-dashoffset:0;stroke-opacity:1;paint-order:normal"
         inkscape:label="d"
         d="m -1958.3933,-609.00502 c -91.0547,0 -126.3205,47.94424 -138.5241,93.48843 -15.8811,59.26883 12.6826,101.54484 2.5277,150.56469 -15.5201,74.91925 -60.3008,65.7512 -94.4306,124.86574 -17.5816,30.45231 -17.6519,63.59594 -5.5164,96.45985 11.1708,30.25123 30.5445,54.419118 56.9627,72.649501 21.4784,14.821474 45.4279,24.159167 71.0933,29.028585 416.9179,79.100483 474.5607,-567.056796 107.8874,-567.056796 z"
         sodipodi:nodetypes="ssssssss" /></g></g></svg>
